<svg xmlns="http://www.w3.org/2000/svg" width="10" height="8" viewBox="0 0 10 8">
  <g id="mail" transform="translate(-673.469 -367.103)">
    <path id="mail-2" data-name="mail" d="M9.811,66.642a.117.117,0,0,1,.189.1V71a.971.971,0,0,1-.937,1H.938A.971.971,0,0,1,0,71V66.742a.116.116,0,0,1,.189-.1c.437.362,1.018.823,3.01,2.367.412.321,1.107,1,1.8.992s1.406-.683,1.8-.992C8.795,67.467,9.373,67,9.811,66.642ZM5,69.333c.453.008,1.105-.608,1.434-.863C9.025,66.465,9.223,66.29,9.82,65.79A.511.511,0,0,0,10,65.4V65a.971.971,0,0,0-.937-1H.938A.971.971,0,0,0,0,65v.4a.514.514,0,0,0,.18.394c.6.5.795.675,3.387,2.681C3.895,68.725,4.547,69.342,5,69.333Z" transform="translate(673.469 303.103)" fill="#7dce94"/>
  </g>
</svg>
