<svg xmlns="http://www.w3.org/2000/svg" width="10" height="10" viewBox="0 0 10 10">
  <g id="phone" transform="translate(-673.256 -347.256)">
    <path id="phone-2" data-name="phone" d="M9.626.47,7.6,0a.472.472,0,0,0-.537.271L6.121,2.46a.468.468,0,0,0,.135.547l1.184.969A7.238,7.238,0,0,1,3.978,7.437L3.009,6.253a.468.468,0,0,0-.547-.135L.275,7.056A.474.474,0,0,0,0,7.595L.47,9.626a.469.469,0,0,0,.457.363A9.061,9.061,0,0,0,9.99.927.468.468,0,0,0,9.626.47Z" transform="translate(673.266 347.267)" fill="#7dce94"/>
  </g>
</svg>
