<svg xmlns="http://www.w3.org/2000/svg" width="10" height="10" viewBox="0 0 10 10">
  <g id="web" transform="translate(-673.469 -329.469)">
    <path id="globe" d="M6.786,11.065C6.493,9.264,5.8,8,5,8S3.509,9.264,3.216,11.065ZM3.065,13a12.634,12.634,0,0,0,.067,1.29H6.868A12.634,12.634,0,0,0,6.935,13a12.634,12.634,0,0,0-.067-1.29H3.132A12.634,12.634,0,0,0,3.065,13Zm6.548-1.935A5.011,5.011,0,0,0,6.427,8.21a6.8,6.8,0,0,1,1.008,2.855ZM3.573,8.21A5.008,5.008,0,0,0,.389,11.065H2.567A6.776,6.776,0,0,1,3.573,8.21Zm6.255,3.5H7.516c.042.423.067.857.067,1.29s-.024.867-.067,1.29H9.827A4.956,4.956,0,0,0,10,13,5.043,5.043,0,0,0,9.829,11.71ZM2.42,13c0-.433.024-.867.067-1.29H.173a4.887,4.887,0,0,0,0,2.581H2.484C2.444,13.867,2.42,13.433,2.42,13Zm.8,1.935C3.509,16.736,4.2,18,5,18s1.492-1.264,1.785-3.065ZM6.429,17.79a5.016,5.016,0,0,0,3.186-2.855H7.437A6.8,6.8,0,0,1,6.429,17.79ZM.389,14.935A5.011,5.011,0,0,0,3.575,17.79a6.8,6.8,0,0,1-1.008-2.855H.389Z" transform="translate(673.469 321.469)" fill="#7dce94"/>
  </g>
</svg>
